<?xml version="1.0" encoding="UTF-8"?>
<!DOCTYPE svg PUBLIC "-//W3C//DTD SVG 1.1//EN" "http://www.w3.org/Graphics/SVG/1.1/DTD/svg11.dtd">
<svg xmlns="http://www.w3.org/2000/svg" version="1.1" width="367px" height="320px" style="shape-rendering:geometricPrecision; text-rendering:geometricPrecision; image-rendering:optimizeQuality; fill-rule:evenodd; clip-rule:evenodd" xmlns:xlink="http://www.w3.org/1999/xlink">
<g><path style="opacity:1" fill="#5f5f5f" d="M 79.5,105.5 C 80.404,106.209 80.7373,107.209 80.5,108.5C 65.8333,108.5 51.1667,108.5 36.5,108.5C 51.0291,108.161 65.3625,107.161 79.5,105.5 Z"/></g>
<g><path style="opacity:1" fill="#131312" d="M 40.5,-0.5 C 44.8333,-0.5 49.1667,-0.5 53.5,-0.5C 67.576,4.96906 73.4094,15.3024 71,30.5C 69.646,33.5046 68.646,36.5046 68,39.5C 76.6839,47.6848 85.5172,55.6848 94.5,63.5C 119.317,28.2639 153.317,12.7639 196.5,17C 228.279,22.052 253.612,37.552 272.5,63.5C 281.65,55.5181 290.65,47.3514 299.5,39C 292.752,28.7738 292.919,18.6072 300,8.5C 309.733,-0.378056 320.567,-1.87806 332.5,4C 339.934,9.26038 343.601,16.4271 343.5,25.5C 355.18,26.493 362.847,32.493 366.5,43.5C 366.5,47.8333 366.5,52.1667 366.5,56.5C 361.245,69.4671 351.579,75.3004 337.5,74C 333.362,72.5721 329.362,71.2387 325.5,70C 313.467,81.7016 301.133,93.035 288.5,104C 287.663,105.011 287.33,106.178 287.5,107.5C 302.504,107.333 317.504,107.5 332.5,108C 337.55,109.434 339.883,112.767 339.5,118C 339.802,122.732 337.802,126.065 333.5,128C 318.17,128.5 302.837,128.667 287.5,128.5C 283.288,159.758 268.621,184.925 243.5,204C 260.135,218.967 276.468,234.3 292.5,250C 293.5,250.667 294.5,250.667 295.5,250C 308.416,242.648 319.916,244.482 330,255.5C 338.303,271.798 334.47,284.298 318.5,293C 315.883,293.822 313.216,294.322 310.5,294.5C 309.856,307.146 303.522,315.479 291.5,319.5C 288.167,319.5 284.833,319.5 281.5,319.5C 269.229,316.05 262.562,307.883 261.5,295C 262.144,289.6 263.311,284.433 265,279.5C 259.365,274.867 254.032,269.867 249,264.5C 241.176,299.794 219.009,317.128 182.5,316.5C 146.448,316.826 124.448,299.493 116.5,264.5C 111.095,269.617 105.595,274.617 100,279.5C 101.229,284.382 102.395,289.382 103.5,294.5C 101.758,307.901 94.4243,316.234 81.5,319.5C 79.8333,319.5 78.1667,319.5 76.5,319.5C 63.0309,316.691 55.3642,308.358 53.5,294.5C 34.4494,289.394 27.616,277.394 33,258.5C 40.6611,245.945 51.4945,242.112 65.5,247C 67.3333,248.167 69.1667,249.333 71,250.5C 88.1667,234.667 105.333,218.833 122.5,203C 98.5806,184.229 84.5806,159.729 80.5,129.5C 65.4963,129.667 50.4963,129.5 35.5,129C 29.8232,125.364 27.9899,120.197 30,113.5C 31.1585,110.507 33.3252,108.84 36.5,108.5C 51.1667,108.5 65.8333,108.5 80.5,108.5C 80.7373,107.209 80.404,106.209 79.5,105.5C 66.3696,93.5384 53.3696,81.3717 40.5,69C 36.6382,70.2387 32.6382,71.5721 28.5,73C 14.4213,74.3004 4.75462,68.4671 -0.5,55.5C -0.5,50.8333 -0.5,46.1667 -0.5,41.5C 3.69412,31.2273 11.3608,25.5607 22.5,24.5C 23.1417,12.207 29.1417,3.87366 40.5,-0.5 Z"/></g>
<g><path style="opacity:1" fill="#4cb77e" d="M 329.5,124.5 C 232.833,124.5 136.167,124.5 39.5,124.5C 34.5442,121.185 34.2109,117.352 38.5,113C 136.167,112.333 233.833,112.333 331.5,113C 333.504,115.841 334.004,119.007 333,122.5C 331.887,123.305 330.721,123.972 329.5,124.5 Z"/></g>
<g><path style="opacity:1" fill="#3e535e" d="M 92.5,80.5 C 153.17,80.1667 213.837,80.5 274.5,81.5C 278.938,88.1109 281.938,95.2775 283.5,103C 282.594,104.699 282.261,106.533 282.5,108.5C 216.832,108.667 151.166,108.5 85.5,108C 84.8729,106.262 84.5396,104.429 84.5,102.5C 85.319,98.1836 86.1524,93.8503 87,89.5C 88.756,88.5787 88.9227,87.412 87.5,86C 88.9912,84.0088 90.6578,82.1754 92.5,80.5 Z"/></g>
<g><path style="opacity:1" fill="#4bb77e" d="M 169.5,22.5 C 215.473,18.4804 249.473,36.4804 271.5,76.5C 212.833,77.8333 154.167,77.8333 95.5,76.5C 110.961,45.7795 135.628,27.7795 169.5,22.5 Z"/></g>
<g><path style="opacity:1" fill="#1c1505" d="M 155.5,59.5 C 157.384,59.7118 158.717,60.7118 159.5,62.5C 157.869,66.1212 155.535,69.1212 152.5,71.5C 150.554,69.9563 150.054,67.9563 151,65.5C 152.332,63.34 153.832,61.34 155.5,59.5 Z"/></g>
<g><path style="opacity:1" fill="#130b03" d="M 142.5,55.5 C 144.665,55.1159 146.332,55.7826 147.5,57.5C 143.733,63.3796 139.733,69.0463 135.5,74.5C 133.554,72.9563 133.054,70.9563 134,68.5C 136.346,63.7964 139.18,59.463 142.5,55.5 Z"/></g>
<g><path style="opacity:1" fill="#140e02" d="M 236.5,51.5 C 241.009,53.1646 244.509,56.1646 247,60.5C 248.333,63.1667 249.667,65.8333 251,68.5C 251.758,70.7695 251.591,72.9361 250.5,75C 249.451,75.4922 248.451,75.3256 247.5,74.5C 245.098,67.2725 241.265,60.9391 236,55.5C 235.421,54.0715 235.588,52.7382 236.5,51.5 Z"/></g>
<g><path style="opacity:1" fill="#150f02" d="M 221.5,58.5 C 223.39,58.2965 224.89,58.9632 226,60.5C 228.455,64.186 229.455,68.186 229,72.5C 227.644,73.3802 226.144,73.7135 224.5,73.5C 223.758,69.2751 222.425,65.2751 220.5,61.5C 220.685,60.4163 221.018,59.4163 221.5,58.5 Z"/></g>
<g><path style="opacity:1" fill="#110c02" d="M 131.5,48.5 C 133.948,48.0101 135.615,48.8434 136.5,51C 130.986,56.6876 125.986,62.8543 121.5,69.5C 116.538,70.8551 115.371,69.1884 118,64.5C 121.959,58.7075 126.459,53.3742 131.5,48.5 Z"/></g>
<g><path style="opacity:1" fill="#fbfbfb" d="M 312.5,6.5 C 324.345,4.1695 332.511,8.50284 337,19.5C 337.76,23.2255 337.593,26.8922 336.5,30.5C 347.387,29.523 355.221,33.8563 360,43.5C 362.202,60.6297 354.702,68.7963 337.5,68C 333.705,67.2072 330.705,65.2072 328.5,62C 327.5,61.3333 326.5,61.3333 325.5,62C 312.967,74.2013 300.134,86.0347 287,97.5C 284.44,87.6541 280.606,78.3208 275.5,69.5C 285.489,59.6785 295.656,50.0118 306,40.5C 304.5,36.9247 302.834,33.2581 301,29.5C 298.99,18.853 302.823,11.1863 312.5,6.5 Z"/></g>
<g><path style="opacity:1" fill="#fbfbfb" d="M 40.5,5.5 C 51.817,3.31587 59.9836,7.31587 65,17.5C 65.6667,21.5 65.6667,25.5 65,29.5C 63.245,33.0099 61.5784,36.3433 60,39.5C 70.4462,49.6244 80.9462,59.6244 91.5,69.5C 86.4488,78.6553 82.7821,88.322 80.5,98.5C 67.0159,86.1832 53.6825,73.6832 40.5,61C 39.0922,60.6848 37.7589,61.0181 36.5,62C 29.0342,68.3839 21.0342,69.0505 12.5,64C 5.06028,56.6204 3.56028,48.1204 8,38.5C 13.4512,31.5275 20.6179,28.5275 29.5,29.5C 27.2222,18.725 30.8888,10.725 40.5,5.5 Z"/></g>
<g><path style="opacity:1" fill="#150e00" d="M 39.5,124.5 C 136.167,124.5 232.833,124.5 329.5,124.5C 329.631,125.239 329.464,125.906 329,126.5C 232.402,125.834 135.902,125.168 39.5,124.5 Z"/></g>
<g><path style="opacity:1" fill="#c1c1c1" d="M 280.5,131.5 C 216.335,130.501 152.002,130.168 87.5,130.5C 87.5,131.833 87.5,133.167 87.5,134.5C 86.5489,133.081 86.2155,131.415 86.5,129.5C 151.503,129.167 216.503,129.5 281.5,130.5C 281.376,131.107 281.043,131.44 280.5,131.5 Z"/></g>
<g><path style="opacity:1" fill="#fafafa" d="M 280.5,131.5 C 271.904,176.929 244.904,203.763 199.5,212C 156.854,218.582 123.687,204.082 100,168.5C 94.1452,157.767 89.9786,146.434 87.5,134.5C 87.5,133.167 87.5,131.833 87.5,130.5C 152.002,130.168 216.335,130.501 280.5,131.5 Z"/></g>
<g><path style="opacity:1" fill="#020202" d="M 136.5,135.5 C 153.103,133.547 164.603,140.213 171,155.5C 172.849,170.305 167.015,180.805 153.5,187C 137.362,190.892 126.196,185.059 120,169.5C 116.173,153.49 121.673,142.157 136.5,135.5 Z"/></g>
<g><path style="opacity:1" fill="#040404" d="M 216.5,135.5 C 232.605,133.797 243.438,140.464 249,155.5C 249.266,181.579 236.766,191.745 211.5,186C 196.598,176.573 192.765,163.739 200,147.5C 204.281,141.705 209.781,137.705 216.5,135.5 Z"/></g>
<g><path style="opacity:1" fill="#0a0a0a" d="M 179.5,187.5 C 184.765,186.571 189.265,187.904 193,191.5C 194.643,196.428 193.143,199.928 188.5,202C 182.488,203.775 177.655,202.275 174,197.5C 173.333,195.833 173.333,194.167 174,192.5C 175.73,190.598 177.563,188.931 179.5,187.5 Z"/></g>
<g><path style="opacity:1" fill="#f5f5f5" d="M 131.5,207.5 C 138.242,210.807 145.242,213.64 152.5,216C 151.285,221.822 149.952,227.655 148.5,233.5C 140.692,231.013 133.526,227.346 127,222.5C 126.333,221.167 126.333,219.833 127,218.5C 128.513,214.812 130.013,211.145 131.5,207.5 Z"/></g>
<g><path style="opacity:1" fill="#f5f5f5" d="M 231.5,208.5 C 232.376,208.369 233.043,208.702 233.5,209.5C 235.891,214.341 237.891,219.341 239.5,224.5C 231.728,229.219 223.395,232.552 214.5,234.5C 213.887,228.104 212.887,221.77 211.5,215.5C 218.587,214.071 225.253,211.738 231.5,208.5 Z"/></g>
<g><path style="opacity:1" fill="#fbfbfb" d="M 240.5,209.5 C 258.765,225.595 276.598,242.261 294,259.5C 303.323,249.562 313.323,248.896 324,257.5C 331.88,271.154 328.713,281.321 314.5,288C 311.183,288.498 307.85,288.665 304.5,288.5C 306.042,306.124 298.042,314.291 280.5,313C 270.315,308.488 266.148,300.655 268,289.5C 269.635,286.368 271.468,283.368 273.5,280.5C 265.817,271.984 257.651,263.984 249,256.5C 248.81,240.329 245.977,224.662 240.5,209.5 Z"/></g>
<g><path style="opacity:1" fill="#f9f9f9" d="M 180.5,219.5 C 180.5,225.833 180.5,232.167 180.5,238.5C 177.5,238.5 174.5,238.5 171.5,238.5C 165.649,238.396 159.982,237.396 154.5,235.5C 154.852,229.07 155.852,222.737 157.5,216.5C 164.995,218.713 172.662,219.713 180.5,219.5 Z"/></g>
<g><path style="opacity:1" fill="#f4f4f4" d="M 203.5,217.5 C 204.833,217.5 206.167,217.5 207.5,217.5C 208.005,223.853 208.672,230.187 209.5,236.5C 201.601,238.28 193.601,239.28 185.5,239.5C 185.5,232.833 185.5,226.167 185.5,219.5C 191.712,219.477 197.712,218.81 203.5,217.5 Z"/></g>
<g><path style="opacity:1" fill="#fbfbfb" d="M 123.5,209.5 C 124.043,209.56 124.376,209.893 124.5,210.5C 120.289,219.009 117.789,228.009 117,237.5C 116.667,243.833 116.333,250.167 116,256.5C 107.5,264.333 99,272.167 90.5,280C 99.9415,290.271 99.6082,300.271 89.5,310C 75.0325,316.681 65.1991,312.515 60,297.5C 59.6124,294.151 59.7791,290.817 60.5,287.5C 46.2315,289.393 38.2315,283.226 36.5,269C 39.6067,252.78 48.94,247.446 64.5,253C 66.96,254.458 69.1266,256.291 71,258.5C 88.6971,242.3 106.197,225.967 123.5,209.5 Z"/></g>
<g><path style="opacity:1" fill="#9a9a9a" d="M 180.5,219.5 C 181.491,225.979 181.824,232.646 181.5,239.5C 177.958,239.813 174.625,239.479 171.5,238.5C 174.5,238.5 177.5,238.5 180.5,238.5C 180.5,232.167 180.5,225.833 180.5,219.5 Z"/></g>
<g><path style="opacity:1" fill="#f6f6f6" d="M 124.5,227.5 C 131.501,231.667 138.835,235.334 146.5,238.5C 147.495,243.886 147.162,249.219 145.5,254.5C 144.635,255.583 143.635,255.749 142.5,255C 135.479,251.964 128.979,248.13 123,243.5C 123.165,238.178 123.665,232.845 124.5,227.5 Z"/></g>
<g><path style="opacity:1" fill="#f6f6f6" d="M 238.5,230.5 C 239.496,230.414 240.329,230.748 241,231.5C 242.393,236.095 242.726,240.761 242,245.5C 234.9,250.55 227.234,254.55 219,257.5C 217.427,251.924 216.261,246.257 215.5,240.5C 223.399,237.54 231.065,234.206 238.5,230.5 Z"/></g>
<g><path style="opacity:1" fill="#f6f6f6" d="M 153.5,240.5 C 162.581,243.346 171.915,244.679 181.5,244.5C 181.5,250.833 181.5,257.167 181.5,263.5C 171.548,263.876 161.881,262.376 152.5,259C 151.461,252.82 151.794,246.654 153.5,240.5 Z"/></g>
<g><path style="opacity:1" fill="#f9f9f9" d="M 186.5,263.5 C 186.5,257.167 186.5,250.833 186.5,244.5C 189.713,244.81 192.713,244.477 195.5,243.5C 200.463,242.574 205.463,241.908 210.5,241.5C 212.295,247.438 212.628,253.438 211.5,259.5C 203.405,262.221 195.071,263.554 186.5,263.5 Z"/></g>
<g><path style="opacity:1" fill="#919191" d="M 195.5,243.5 C 192.713,244.477 189.713,244.81 186.5,244.5C 186.5,250.833 186.5,257.167 186.5,263.5C 185.509,257.021 185.176,250.354 185.5,243.5C 188.833,243.5 192.167,243.5 195.5,243.5 Z"/></g>
<g><path style="opacity:1" fill="#fbfbfb" d="M 122.5,250.5 C 162.191,275.126 202.357,275.793 243,252.5C 243.518,286.321 227.018,305.821 193.5,311C 174.557,313.596 157.224,309.596 141.5,299C 127.814,285.785 121.48,269.618 122.5,250.5 Z"/></g>
</svg>
